<?xml version="1.0" encoding="utf-8"?>
<!-- Generator: Adobe Illustrator 24.0.1, SVG Export Plug-In . SVG Version: 6.00 Build 0)  -->
<svg version="1.1" id="Capa_1" xmlns="http://www.w3.org/2000/svg" xmlns:xlink="http://www.w3.org/1999/xlink" x="0px" y="0px"
	 viewBox="0 0 83.8 67.1" style="enable-background:new 0 0 83.8 67.1;" xml:space="preserve">
<style type="text/css">
	.st0{fill:#10AADE;}
</style>
<g>
	<g>
		<path class="st0" d="M72.4,12.6h-8.4l-4.6-7c-1.7-2.6-4.8-4.2-7.9-4.2H32.3c-3.1,0-6.2,1.6-7.9,4.2l-4.6,7h-8.4
			c-5.3,0-9.6,4.3-9.6,9.6V56c0,5.3,4.3,9.6,9.6,9.6h61c5.3,0,9.6-4.3,9.6-9.6V22.2C82,16.9,77.7,12.6,72.4,12.6z M41.9,57.8
			c-11.9,0-21.6-9.7-21.6-21.6S30,14.6,41.9,14.6s21.6,9.7,21.6,21.6C63.5,48.1,53.9,57.8,41.9,57.8z M71.2,26.1c-0.1,0-0.2,0-0.3,0
			h-3.5c-1.6-0.1-2.8-1.4-2.7-3c0.1-1.5,1.2-2.6,2.7-2.7h3.5c1.6-0.1,2.9,1.1,3,2.7C73.9,24.7,72.8,26,71.2,26.1z"/>
	</g>
</g>
<g>
	<g>
		<path class="st0" d="M41.9,24.2c-6.6,0-12,5.4-12,12s5.4,11.9,12,11.9s12-5.4,12-12C53.9,29.5,48.5,24.2,41.9,24.2z"/>
	</g>
</g>
</svg>
