<svg width="23" height="23" viewBox="0 0 23 23" fill="none" xmlns="http://www.w3.org/2000/svg">
<g clip-path="url(#clip0)">
<path d="M18.8942 6.72409C18.5242 6.51179 18.0522 6.63965 17.8399 7.00963L11.2876 18.4296C10.4358 19.9049 8.54605 20.4112 7.06816 19.5585C5.59105 18.7052 5.08469 16.8154 5.93751 15.3383L12.6842 3.58174C13.216 2.6607 14.397 2.34425 15.3206 2.87701C16.244 3.41017 16.5604 4.59106 16.0272 5.51478L10.4274 15.2137C10.427 15.2144 10.4268 15.215 10.4264 15.2157C10.2126 15.5836 9.74158 15.7094 9.37284 15.4965C9.00347 15.2832 8.87695 14.8111 9.09021 14.4417L11.793 9.75928C12.0062 9.38984 11.8796 8.91746 11.5101 8.70422C11.1407 8.49098 10.6683 8.6176 10.4551 8.98704L7.75235 13.6694C7.11255 14.7775 7.49221 16.1944 8.60045 16.8342C9.70864 17.4741 11.1256 17.0944 11.7654 15.9862C11.7661 15.9849 11.7667 15.9836 11.7674 15.9823L17.3649 6.2871C18.3248 4.62454 17.7552 2.4989 16.0927 1.53902C14.4301 0.579953 12.3046 1.14948 11.3453 2.81107L4.59869 14.5677C3.32033 16.7819 4.07977 19.6161 6.29578 20.8963C8.51277 22.1755 11.3471 21.416 12.6264 19.2001L19.1798 7.77841C19.3921 7.4084 19.2642 6.93639 18.8942 6.72409Z" fill="#0058C9"/>
</g>
<defs>
<clipPath id="clip0">
<rect width="18.5366" height="18.5366" fill="white" transform="translate(0 4.79761) rotate(-15)"/>
</clipPath>
</defs>
</svg>
