<?xml version="1.0" encoding="utf-8"?>
<!-- Generator: Adobe Illustrator 24.0.1, SVG Export Plug-In . SVG Version: 6.00 Build 0)  -->
<svg version="1.1" id="Capa_1" xmlns="http://www.w3.org/2000/svg" xmlns:xlink="http://www.w3.org/1999/xlink" x="0px" y="0px"
	 viewBox="0 0 563.3 563.3" style="enable-background:new 0 0 563.3 563.3;" xml:space="preserve">
<style type="text/css">
	.st0{fill:#0058C9;}
</style>
<g>
	<path class="st0" d="M281.7,562.7c-75.1,0-145.6-29.2-198.7-82.3C29.9,427.3,0.7,356.7,0.7,281.7S29.9,136,83,83
		C136,29.9,206.6,0.7,281.7,0.7S427.3,29.9,480.4,83c53.1,53.1,82.3,123.6,82.3,198.7s-29.2,145.6-82.3,198.7
		C427.3,533.4,356.7,562.7,281.7,562.7z M281.7,50.7c-127.4,0-231,103.6-231,231s103.6,231,231,231s231-103.6,231-231
		S409,50.7,281.7,50.7z"/>
</g>
<g>
	<path class="st0" d="M185.7,259.7c-23.2,0-42-18.8-42-42s18.8-42,42-42s42,18.8,42,42S208.8,259.7,185.7,259.7z"/>
</g>
<g>
	<path class="st0" d="M377.7,259.7c-23.2,0-42-18.8-42-42s18.8-42,42-42s42,18.8,42,42S400.8,259.7,377.7,259.7z"/>
</g>
<g>
	<path class="st0" d="M281.7,414.6c-45.4,0-88.1-17.7-120.2-49.8c-4.9-4.9-7.6-11.4-7.6-18.4s2.7-13.5,7.6-18.4
		c4.9-4.9,11.4-7.6,18.4-7.6c6.9,0,13.5,2.7,18.4,7.6c21.2,21.2,51.6,33.4,83.4,33.4c31.8,0,62.3-12.2,83.5-33.4
		c10.1-10.1,26.6-10.1,36.8,0c4.9,4.9,7.6,11.4,7.6,18.4s-2.7,13.5-7.6,18.4C369.7,396.9,327.1,414.6,281.7,414.6z"/>
</g>
</svg>
