<?xml version="1.0" encoding="utf-8"?>
<!-- Generator: Adobe Illustrator 24.0.1, SVG Export Plug-In . SVG Version: 6.00 Build 0)  -->
<svg version="1.1" id="Capa_1" xmlns="http://www.w3.org/2000/svg" xmlns:xlink="http://www.w3.org/1999/xlink" x="0px" y="0px"
	 viewBox="0 0 23 23" style="enable-background:new 0 0 23 23;" xml:space="preserve">
<style type="text/css">
	.st0{fill:none;stroke:#0058C9;}
	.st1{fill:#0058C9;}
</style>
<path class="st0" d="M22.5,11.5c0,6.1-4.9,11-11,11c-6.1,0-11-4.9-11-11c0-6.1,4.9-11,11-11C17.6,0.5,22.5,5.4,22.5,11.5z"/>
<path class="st1" d="M11.5,13.8c1.4,0,2.6-1.2,2.6-2.6V7.1c0-1.4-1.2-2.6-2.6-2.6c-1.4,0-2.6,1.2-2.6,2.6v4.1
	C8.9,12.6,10.1,13.8,11.5,13.8z"/>
<path class="st1" d="M11.1,18c0,0.2,0.2,0.4,0.4,0.4c0.2,0,0.4-0.2,0.4-0.4v-1.9h0.3c1.7,0,3.2-1.4,3.2-3.2c0-0.2-0.2-0.4-0.4-0.4
	c-0.2,0-0.4,0.2-0.4,0.4c0,1.3-1.1,2.4-2.4,2.4h-1.3c-1.3,0-2.4-1.1-2.4-2.4c0-0.2-0.2-0.4-0.4-0.4c-0.2,0-0.4,0.2-0.4,0.4
	c0,1.7,1.4,3.2,3.2,3.2h0.3V18z"/>
</svg>
