<?xml version="1.0" encoding="utf-8"?>
<!-- Generator: Adobe Illustrator 24.0.1, SVG Export Plug-In . SVG Version: 6.00 Build 0)  -->
<svg version="1.1" id="Capa_1" xmlns="http://www.w3.org/2000/svg" xmlns:xlink="http://www.w3.org/1999/xlink" x="0px" y="0px"
	 viewBox="0 0 23 23" style="enable-background:new 0 0 23 23;" xml:space="preserve">
<style type="text/css">
	.st0{fill:#0058C9;}
	.st1{fill:#FFFFFF;}
	.st2{fill:#FFFFFF;filter:url(#Adobe_OpacityMaskFilter);}
	.st3{mask:url(#path-3-inside-1_1_);fill:#FFFFFF;}
</style>
<path class="st0" d="M11.5,23C17.9,23,23,17.9,23,11.5C23,5.1,17.9,0,11.5,0C5.1,0,0,5.1,0,11.5C0,17.9,5.1,23,11.5,23z"/>
<path class="st1" d="M11.5,13.8c1.4,0,2.6-1.2,2.6-2.6V7.1c0-1.4-1.2-2.6-2.6-2.6c-1.4,0-2.6,1.2-2.6,2.6v4.1
	C8.9,12.6,10.1,13.8,11.5,13.8z"/>
<path class="st1" d="M11.1,18c0,0.2,0.2,0.4,0.4,0.4c0.2,0,0.4-0.2,0.4-0.4v-1.9h0.3c1.7,0,3.2-1.4,3.2-3.2c0-0.2-0.2-0.4-0.4-0.4
	c-0.2,0-0.4,0.2-0.4,0.4c0,1.3-1.1,2.4-2.4,2.4h-1.3c-1.3,0-2.4-1.1-2.4-2.4c0-0.2-0.2-0.4-0.4-0.4c-0.2,0-0.4,0.2-0.4,0.4
	c0,1.7,1.4,3.2,3.2,3.2h0.3V18z"/>
<defs>
	<filter id="Adobe_OpacityMaskFilter" filterUnits="userSpaceOnUse" x="6.7" y="11.6" width="9.7" height="7.8">
		<feColorMatrix  type="matrix" values="1 0 0 0 0  0 1 0 0 0  0 0 1 0 0  0 0 0 1 0"/>
	</filter>
</defs>
<mask maskUnits="userSpaceOnUse" x="6.7" y="11.6" width="9.7" height="7.8" id="path-3-inside-1_1_">
	<path class="st2" d="M11.1,18c0,0.2,0.2,0.4,0.4,0.4c0.2,0,0.4-0.2,0.4-0.4v-1.9h0.3c1.7,0,3.2-1.4,3.2-3.2c0-0.2-0.2-0.4-0.4-0.4
		c-0.2,0-0.4,0.2-0.4,0.4c0,1.3-1.1,2.4-2.4,2.4h-1.3c-1.3,0-2.4-1.1-2.4-2.4c0-0.2-0.2-0.4-0.4-0.4c-0.2,0-0.4,0.2-0.4,0.4
		c0,1.7,1.4,3.2,3.2,3.2h0.3V18z"/>
</mask>
<path class="st3" d="M11.9,16.1v-1h-1v1H11.9z M11.1,16.1h1v-1h-1V16.1z M10.1,18c0,0.8,0.6,1.4,1.4,1.4v-2c0.3,0,0.6,0.3,0.6,0.6
	H10.1z M11.5,19.4c0.8,0,1.4-0.6,1.4-1.4h-2c0-0.3,0.3-0.6,0.6-0.6V19.4z M12.9,18v-1.9h-2V18H12.9z M11.9,17.1h0.3v-2h-0.3V17.1z
	 M12.2,17.1c2.3,0,4.2-1.9,4.2-4.2h-2c0,1.2-1,2.2-2.2,2.2V17.1z M16.3,13c0-0.8-0.6-1.4-1.4-1.4v2c-0.3,0-0.6-0.3-0.6-0.6H16.3z
	 M14.9,11.6c-0.8,0-1.4,0.6-1.4,1.4h2c0,0.3-0.3,0.6-0.6,0.6V11.6z M13.6,13c0,0.8-0.6,1.4-1.4,1.4v2c1.9,0,3.4-1.5,3.4-3.4H13.6z
	 M12.2,14.3h-1.3v2h1.3V14.3z M10.8,14.3c-0.8,0-1.4-0.6-1.4-1.4h-2c0,1.9,1.5,3.4,3.4,3.4V14.3z M9.4,13c0-0.8-0.6-1.4-1.4-1.4v2
	c-0.3,0-0.6-0.3-0.6-0.6H9.4z M8.1,11.6c-0.8,0-1.4,0.6-1.4,1.4h2c0,0.3-0.3,0.6-0.6,0.6V11.6z M6.7,13c0,2.3,1.9,4.2,4.2,4.2v-2
	c-1.2,0-2.2-1-2.2-2.2H6.7z M10.8,17.1h0.3v-2h-0.3V17.1z M10.1,16.1V18h2v-1.9H10.1z"/>
</svg>
