<svg width="23" height="23" viewBox="0 0 23 23" fill="none" xmlns="http://www.w3.org/2000/svg">
<path d="M22.5 11.5C22.5 17.5751 17.5751 22.5 11.5 22.5C5.42487 22.5 0.5 17.5751 0.5 11.5C0.5 5.42487 5.42487 0.5 11.5 0.5C17.5751 0.5 22.5 5.42487 22.5 11.5Z" fill="white" stroke="#0058C9"/>
<path d="M7.00002 7.12883V11.0519C6.99986 11.0823 7.01094 11.1117 7.03111 11.1344C7.05128 11.157 7.0791 11.1713 7.10916 11.1744L12.4277 11.8796C12.4566 11.885 12.4828 11.9004 12.5016 11.9232C12.5204 11.9459 12.5307 11.9746 12.5307 12.0042C12.5307 12.0338 12.5204 12.0625 12.5016 12.0853C12.4828 12.108 12.4566 12.1234 12.4277 12.1288L7.10916 12.8298C7.07946 12.8338 7.05215 12.8484 7.03215 12.8708C7.01214 12.8932 7.00075 12.9221 7.00002 12.9523V16.8754C7.00036 16.8963 7.00582 16.9167 7.0159 16.9349C7.02599 16.9532 7.04039 16.9686 7.05783 16.9799C7.07528 16.9912 7.09522 16.9979 7.11589 16.9996C7.13656 17.0013 7.15732 16.9978 7.17632 16.9894L18.9299 12.1161C18.9511 12.1051 18.9688 12.0884 18.9811 12.0679C18.9935 12.0474 19 12.024 19 12C19 11.976 18.9935 11.9526 18.9811 11.9321C18.9688 11.9116 18.9511 11.8949 18.9299 11.8839L7.17632 7.01058C7.15699 7.00209 7.13585 6.99862 7.11484 7.00049C7.09383 7.00236 7.07363 7.00951 7.05608 7.02128C7.03853 7.03305 7.0242 7.04906 7.0144 7.06785C7.00461 7.08665 6.99966 7.10761 7.00002 7.12883Z" fill="#0058C9"/>
</svg>
